<svg width="76" height="33" viewBox="0 0 76 33" fill="none" xmlns="http://www.w3.org/2000/svg">
<ellipse cx="16.2133" cy="16.8956" rx="16.2133" ry="16.1046" fill="#DCDCDC"/>
<path d="M20.1973 18.3129H17.3263V21.2499H14.6533V18.3129H11.7823V15.7884H14.6533V12.8349H17.3263V15.7884H20.1973V18.3129Z" fill="black"/>
<ellipse cx="59.7866" cy="16.8956" rx="16.2133" ry="16.1046" fill="#DCDCDC"/>
<g clip-path="url(#clip0_2_1091)">
<path d="M60.95 15.7398C60.512 15.3049 59.9179 15.0605 59.2985 15.0605C58.6791 15.0605 58.0851 15.3049 57.647 15.7398L55.995 17.3803C55.5569 17.8154 55.3108 18.4056 55.3108 19.021C55.3108 19.6363 55.5569 20.2265 55.995 20.6617C56.4331 21.0968 57.0272 21.3413 57.6468 21.3413C58.2663 21.3413 58.8605 21.0968 59.2985 20.6617L60.1243 19.8414" stroke="black" stroke-width="1.58333" stroke-linecap="round" stroke-linejoin="round"/>
<path d="M59.2986 17.3807C59.7367 17.8157 60.3307 18.06 60.9501 18.06C61.5695 18.06 62.1635 17.8157 62.6016 17.3807L64.2536 15.7403C64.6917 15.3051 64.9378 14.715 64.9378 14.0996C64.9378 13.4842 64.6917 12.894 64.2536 12.4589C63.8156 12.0238 63.2214 11.7793 62.6019 11.7793C61.9823 11.7793 61.3882 12.0238 60.9501 12.4589L60.1243 13.2791" stroke="black" stroke-width="1.58333" stroke-linecap="round" stroke-linejoin="round"/>
</g>
<defs>
<clipPath id="clip0_2_1091">
<rect width="12.8356" height="12.7495" fill="white" transform="translate(53.7065 10.1855)"/>
</clipPath>
</defs>
</svg>
